<?xml version="1.0" encoding="UTF-8" standalone="no"?>
<!DOCTYPE svg PUBLIC "-//W3C//DTD SVG 1.1//EN" "http://www.w3.org/Graphics/SVG/1.1/DTD/svg11.dtd">
<svg version="1.1" xmlns="http://www.w3.org/2000/svg" xmlns:xlink="http://www.w3.org/1999/xlink" preserveAspectRatio="xMidYMid meet" viewBox="-0.4763289191851072 -1 1034.9526578383702 744.9944056832519" width="1030.95" height="740.99"><defs><path d="M0.52 740.5L166.36 740.5" id="d7oNbBadIN"></path><path d="M960.15 127.62C973.07 127.62 979.53 134.08 979.53 147C979.53 422.84 979.53 576.09 979.53 606.74C979.53 619.66 973.07 626.12 960.15 626.12C541.65 626.12 309.15 626.12 262.66 626.12C249.74 626.12 243.28 619.66 243.28 606.74C243.28 330.9 243.28 177.65 243.28 147C243.28 134.08 249.74 127.62 262.66 127.62C681.15 127.62 913.65 127.62 960.15 127.62Z" id="b6ILFIFjnA"></path><path d="M937.67 96.16C950.59 96.16 957.05 102.61 957.05 115.53C957.05 391.38 957.05 544.62 957.05 575.27C957.05 588.19 950.59 594.65 937.67 594.65C519.18 594.65 286.68 594.65 240.18 594.65C227.26 594.65 220.8 588.19 220.8 575.27C220.8 299.43 220.8 146.18 220.8 115.53C220.8 102.61 227.26 96.16 240.18 96.16C658.68 96.16 891.17 96.16 937.67 96.16Z" id="bbWQJKcdg"></path><path d="M220.8 143.95L957.05 143.95" id="a3alwUGqsq"></path><path d="M854.56 255.99C859.29 255.99 861.65 258.35 861.65 263.08C861.65 273.16 861.65 278.76 861.65 279.88C861.65 284.6 859.29 286.96 854.56 286.96C742.59 286.96 680.38 286.96 667.94 286.96C663.21 286.96 660.85 284.6 660.85 279.88C660.85 269.8 660.85 264.2 660.85 263.08C660.85 258.35 663.21 255.99 667.94 255.99C779.91 255.99 842.12 255.99 854.56 255.99Z" id="a17QE8Mh7"></path><path d="M893.02 341.91C897.75 341.91 900.11 344.27 900.11 348.99C900.11 355.47 900.11 359.07 900.11 359.79C900.11 364.52 897.75 366.88 893.02 366.88C734.9 366.88 647.05 366.88 629.48 366.88C624.75 366.88 622.39 364.52 622.39 359.79C622.39 353.31 622.39 349.71 622.39 348.99C622.39 344.27 624.75 341.91 629.48 341.91C787.61 341.91 875.45 341.91 893.02 341.91Z" id="h1zEbiiBVp"></path><path d="M893.02 409.84C897.75 409.84 900.11 412.2 900.11 416.92C900.11 423.4 900.11 427.01 900.11 427.73C900.11 432.45 897.75 434.81 893.02 434.81C734.9 434.81 647.05 434.81 629.48 434.81C624.75 434.81 622.39 432.45 622.39 427.73C622.39 421.24 622.39 417.64 622.39 416.92C622.39 412.2 624.75 409.84 629.48 409.84C787.61 409.84 875.45 409.84 893.02 409.84Z" id="bOG5KAAf7"></path><path d="M893.02 477.77C897.75 477.77 900.11 480.13 900.11 484.85C900.11 491.34 900.11 494.94 900.11 495.66C900.11 500.38 897.75 502.74 893.02 502.74C734.9 502.74 647.05 502.74 629.48 502.74C624.75 502.74 622.39 500.38 622.39 495.66C622.39 489.17 622.39 485.57 622.39 484.85C622.39 480.13 624.75 477.77 629.48 477.77C787.61 477.77 875.45 477.77 893.02 477.77Z" id="h3ZAHAKAGM"></path><path d="M864.55 246C869.28 246 871.64 248.36 871.64 253.09C871.64 263.17 871.64 268.77 871.64 269.89C871.64 274.61 869.28 276.97 864.55 276.97C752.58 276.97 690.37 276.97 677.93 276.97C673.2 276.97 670.84 274.61 670.84 269.89C670.84 259.81 670.84 254.21 670.84 253.09C670.84 248.36 673.2 246 677.93 246C789.9 246 852.11 246 864.55 246Z" id="b9PepnYxR"></path><path d="M903.01 331.92C907.74 331.92 910.1 334.28 910.1 339C910.1 345.48 910.1 349.08 910.1 349.8C910.1 354.53 907.74 356.89 903.01 356.89C744.89 356.89 657.04 356.89 639.47 356.89C634.74 356.89 632.38 354.53 632.38 349.8C632.38 343.32 632.38 339.72 632.38 339C632.38 334.28 634.74 331.92 639.47 331.92C797.6 331.92 885.44 331.92 903.01 331.92Z" id="a1ILyjGwgv"></path><path d="M903.01 399.85C907.74 399.85 910.1 402.21 910.1 406.93C910.1 413.41 910.1 417.02 910.1 417.74C910.1 422.46 907.74 424.82 903.01 424.82C744.89 424.82 657.04 424.82 639.47 424.82C634.74 424.82 632.38 422.46 632.38 417.74C632.38 411.25 632.38 407.65 632.38 406.93C632.38 402.21 634.74 399.85 639.47 399.85C797.6 399.85 885.44 399.85 903.01 399.85Z" id="d2l41wqCno"></path><path d="M903.01 467.78C907.74 467.78 910.1 470.14 910.1 474.86C910.1 481.35 910.1 484.95 910.1 485.67C910.1 490.39 907.74 492.75 903.01 492.75C744.89 492.75 657.04 492.75 639.47 492.75C634.74 492.75 632.38 490.39 632.38 485.67C632.38 479.18 632.38 475.58 632.38 474.86C632.38 470.14 634.74 467.78 639.47 467.78C797.6 467.78 885.44 467.78 903.01 467.78Z" id="cqYiTeUMK"></path><path d="M276.74 111.14C268.47 111.14 261.76 117.85 261.76 126.12C261.76 134.4 268.47 141.11 276.74 141.11C285.02 141.11 291.73 134.4 291.73 126.12C291.73 117.85 285.02 111.14 276.74 111.14Z" id="cXEjm09kL"></path><path d="M318.7 111.14C310.42 111.14 303.72 117.85 303.72 126.12C303.72 134.4 310.42 141.11 318.7 141.11C326.98 141.11 333.69 134.4 333.69 126.12C333.69 117.85 326.98 111.14 318.7 111.14Z" id="a8nVX4HVi7"></path><path d="M360.66 111.14C352.38 111.14 345.67 117.85 345.67 126.12C345.67 134.4 352.38 141.11 360.66 141.11C368.93 141.11 375.64 134.4 375.64 126.12C375.64 117.85 368.93 111.14 360.66 111.14Z" id="bIG6NQ6Vw"></path><path d="M282.74 105.15C274.46 105.15 267.75 111.85 267.75 120.13C267.75 128.41 274.46 135.12 282.74 135.12C291.01 135.12 297.72 128.41 297.72 120.13C297.72 111.85 291.01 105.15 282.74 105.15Z" id="f6mJ7ZESH"></path><path d="M324.69 105.15C316.42 105.15 309.71 111.85 309.71 120.13C309.71 128.41 316.42 135.12 324.69 135.12C332.97 135.12 339.68 128.41 339.68 120.13C339.68 111.85 332.97 105.15 324.69 105.15Z" id="a13QT3Q3Ch"></path><path d="M366.65 105.15C358.38 105.15 351.67 111.85 351.67 120.13C351.67 128.41 358.38 135.12 366.65 135.12C374.93 135.12 381.64 128.41 381.64 120.13C381.64 111.85 374.93 105.15 366.65 105.15Z" id="b1ybqDyzbK"></path><path d="M453.42 573.67C450.91 562.11 450.24 546.33 451.09 535.35C451.09 535.35 438.4 479.62 428.42 474.42C428.42 474.42 428.42 474.42 428.42 474.42C428.26 474.62 423.42 480.97 422.81 500.62C422.18 520.58 415.11 533.68 415.11 533.68C415.11 533.68 417.4 558.57 416.09 573.67C423.56 573.67 445.95 573.67 453.42 573.67Z" id="b45hkt9Xje"></path><path d="M315.48 219.03C302.36 219.03 291.73 229.66 291.73 242.78C291.73 242.78 291.73 242.78 291.73 242.78C291.73 273.49 291.73 519.21 291.73 549.92C291.73 563.04 302.36 573.67 315.48 573.67C315.48 573.67 315.48 573.67 315.48 573.67C323.55 573.67 388.17 573.67 396.25 573.67C393.55 562.48 390.2 545.01 393.59 532.86C393.59 532.86 393.59 532.86 393.59 532.85C393.59 532.85 393.59 532.86 393.59 532.86C393.75 532.29 393.92 531.73 394.11 531.19C396.44 523.3 397.22 515.04 396.4 506.86C397.9 499.87 397.9 492.64 396.4 485.65C393.9 474 392.16 462.57 392.16 462.57C392.16 462.57 390.78 447.18 391.98 437.75C392.01 437.54 392.04 437.34 392.07 437.14C391.65 437.05 391.41 436.99 391.41 436.99C391.41 436.99 394.94 420.98 396.19 410.79C396.48 408.38 396.87 405.33 397.29 402.08C396.14 401.89 395.01 401.6 393.9 401.22C382.67 397.27 379.14 361.51 379.14 361.51C379.14 360.37 379.14 351.31 379.14 350.17C379.14 350.17 375.4 332.81 388.5 325.12C401.11 317.71 406.15 315.68 406.5 315.54C406.6 315.47 406.69 315.41 406.79 315.33C408.22 314.21 409.35 312.76 410.08 311.1C410.1 310.68 410.09 310.34 410.09 310.25C409.88 306.19 407.05 302.5 404.37 299.27C400.93 295.15 398.19 291.85 397.5 291.02C396.72 290.2 396.11 289.23 395.73 288.16C395.59 287.57 395.52 286.96 395.54 286.36C395.54 286.02 395.55 285.75 395.55 285.69C395.6 282.61 395.7 280.15 395.72 279.54C395.78 277.75 396.23 275.49 397.98 275.12C398.9 274.93 400.1 275.26 400.59 274.46C400.75 274.14 400.79 273.76 400.7 273.4C400.7 273.43 400.69 273.46 400.69 273.49C400.68 273.45 400.68 273.42 400.67 273.39C400.31 271.95 400.09 270.48 400.02 269C400 268.34 400.1 267.67 400.3 267.04C401.32 264.06 404.81 262.84 407.9 262.28C411 261.72 414.46 261.24 416.4 258.77C416.92 257.95 417.49 257.16 418.09 256.4C418.98 255.59 420.07 255.04 421.25 254.8C425.09 253.83 429.14 254.19 432.75 255.82C434.24 256.51 435.75 257.42 437.39 257.32C439.09 257.21 440.54 256.01 442.23 255.72C444.94 255.25 447.54 257.29 448.88 259.7C449.73 261.23 450.15 262.96 450.11 264.71C450.14 266.46 449.51 268.15 448.35 269.45C447.18 270.69 445.43 271.54 444.95 273.18C444.75 273.84 444.8 274.56 444.62 275.23C444.6 275.31 444.56 275.39 444.54 275.47C444.57 275.51 444.6 275.55 444.63 275.59C451.71 284.93 449.89 298.23 440.56 305.31C438.67 306.74 436.56 307.85 434.31 308.58C434.3 308.79 434.3 309 434.3 309.21C434.18 311.87 435.21 314.44 437.13 316.27C438.99 317.03 453.81 323.11 455.66 323.87C455.66 323.87 466.82 322.52 470.84 339.16C471.49 341.93 471.72 344.78 471.53 347.61C471.38 350.12 471.73 354.54 474.59 360.26C479.16 369.41 478.12 390.41 468.76 392.49C459.9 394.46 456.45 393.63 456.11 393.54C456.11 393.58 456.09 393.87 456.09 393.91C456.24 397.85 457.64 431.84 462.73 435.95C464.14 437.09 463.87 437.86 462.72 438.37C462.72 438.37 462.72 438.38 462.72 438.38C462.72 438.38 462.73 438.6 462.75 438.99C462.9 441.47 463.69 450.94 467.1 456.33C471.05 462.57 470.64 498.54 470.64 498.54C470.91 500.66 473.07 517.63 473.34 519.75C473.34 519.75 471.67 532.85 473.34 535.14C474.28 536.44 475.42 556.52 476.24 573.67C483.18 573.67 538.75 573.67 545.7 573.67C558.81 573.67 569.45 563.04 569.45 549.92C569.45 519.21 569.45 273.49 569.45 242.78C569.45 229.66 558.81 219.03 545.7 219.03C545.7 219.03 545.7 219.03 545.7 219.03C545.7 219.03 338.5 219.03 315.48 219.03Z" id="a5LFoA3Wr3"></path><path d="M521.72 192.06C537.55 192.06 545.47 199.97 545.47 215.81C545.47 400.09 545.47 502.47 545.47 522.95C545.47 538.78 537.55 546.7 521.72 546.7C383.59 546.7 306.85 546.7 291.5 546.7C275.67 546.7 267.75 538.78 267.75 522.95C267.75 338.66 267.75 236.28 267.75 215.81C267.75 199.97 275.67 192.06 291.5 192.06C429.63 192.06 506.37 192.06 521.72 192.06Z" id="h5RWdL7o4N"></path><path d="M101.25 321.3C101.25 321.3 91.93 318.55 89.93 321.55C87.93 324.54 92.66 346.27 92.66 346.27C94.03 346.35 100.87 346.77 113.18 347.52L106.02 329.43C103.47 325.1 101.88 322.39 101.25 321.3Z" id="c1uf9XGQ91"></path><path d="M29.44 499.71C29.44 499.71 48.11 540.71 33.73 539.43C33.73 539.43 13.77 499.71 13.77 499.71C16.9 499.71 26.3 499.71 29.44 499.71Z" id="b3eDThDIEQ"></path><path d="M151.06 495.44C151.06 495.44 142.86 539.74 156.51 535.01C156.51 535.01 166.26 491.65 166.26 491.65C163.22 492.41 154.1 494.68 151.06 495.44Z" id="dgwrmh4if"></path><path d="M97.27 311.02C97.27 311.02 97.06 331.63 105 332.71C105 332.71 100.49 344.73 100.49 344.73C99.55 344.91 94.82 345.84 86.32 347.52L65.93 346.01C60.52 339.06 57.52 335.2 56.92 334.42C56.92 334.42 72.8 326.91 65.93 303.51C72.2 305.01 91 309.52 97.27 311.02Z" id="baEz1cNaF"></path><path d="M97.27 311.02C97.27 311.02 97.06 331.63 105 332.71C105 332.71 100.49 344.73 100.49 344.73C99.55 344.91 94.82 345.84 86.32 347.52L65.93 346.01C60.52 339.06 57.52 335.2 56.92 334.42C56.92 334.42 72.8 326.91 65.93 303.51C72.2 305.01 91 309.52 97.27 311.02Z" id="baAQKeabsT"></path><path d="M135.91 575.06C135.91 575.06 138.27 599.1 136.34 603.61C134.41 608.12 118.52 669.3 118.52 669.3C118.52 669.3 98.13 673.8 95.34 660.28C95.34 660.28 98.13 640.96 97.92 637.96C97.7 634.95 102.42 602.11 102.42 602.11C101.78 597.87 98.56 576.69 92.76 538.57C88.38 572.96 85.95 592.06 85.47 595.88C85.47 595.88 85.47 612.41 83.1 616.06C83.1 616.06 83.1 693.12 83.1 693.12C83.1 693.12 89.76 704.29 79.67 704.5C79.67 704.5 60.56 704.29 59.71 697.2C59.71 697.2 58.42 683.04 56.27 678.74C56.27 678.74 51.33 625.29 51.98 608.12C51.98 608.12 37.81 502.72 42.53 493.49C47.26 484.26 133.76 485.33 133.76 485.33C134.19 503.28 143.85 507.01 135.91 575.06Z" id="d6mICLdarf"></path><path d="M86.32 267.23C72.1 267.23 60.56 278.77 60.56 292.99C60.56 307.22 72.1 318.75 86.32 318.75C100.55 318.75 112.08 307.22 112.08 292.99C112.08 278.77 100.55 267.23 86.32 267.23Z" id="c2C9tDjhmw"></path><path d="M98.99 337.21C98.99 337.21 106.5 333.56 105.86 327.98C105.21 322.4 121.53 372.85 121.53 372.85C122.63 378.7 128.14 407.97 138.06 460.64C137.54 482.15 137.26 494.1 137.2 496.49C137.2 496.49 129.9 492.84 107.15 501C107.15 501 47.26 491.77 47.26 491.77C47.34 485.63 47.77 454.93 48.54 399.68L49.83 346.01C51.89 338.93 53.04 334.99 53.27 334.21C53.27 334.21 54.98 330.99 60.56 334.85C68.25 335.32 76.24 346.44 98.99 337.21Z" id="a2nbiP9sg"></path><path d="M105.43 325.62C105.43 325.62 117.67 335.07 117.67 335.07C117.67 335.07 138.49 336.35 141.49 347.52C141.49 347.52 152.01 373.92 155.66 402.04C155.66 402.04 166.61 475.03 167.68 478.68C167.68 478.68 166.18 493.49 169.18 496.92C169.18 496.92 147.93 500.36 147.93 500.36C147.93 500.36 145.79 482.75 144.28 482.75C144.28 482.75 143.21 494.56 144.71 503.15C144.71 503.15 133.76 503.15 133.76 503.15C133.76 503.15 124.1 463.86 114.87 428.44C105.64 393.03 100.28 373.49 101.99 365.55C103.71 357.61 108.43 334.85 105 332.71C101.57 330.56 97.99 320.44 97.99 320.44C99.48 321.48 101.78 319.83 105.43 325.62Z" id="b3muRG8ab"></path><path d="M47.26 333.56C47.26 333.56 23.43 351.38 23.43 351.38C23.43 351.38 17.85 355.67 14.41 381.22C10.98 406.76 3.25 472.88 6.25 481.25C9.26 489.62 10.33 494.56 9.26 499.5C8.19 504.44 31.8 504.22 32.23 503.15C32.66 502.07 31.59 482.54 32.66 482.11C33.73 481.68 39.53 493.7 40.6 503.79C41.67 513.88 54.12 521.82 56.92 521.82C59.71 521.82 74.09 463.65 74.3 423.94C74.52 384.22 69.58 350.74 65.93 346.01C62.28 341.29 67.03 320.42 67.03 320.42C63.08 323.05 61.42 323.47 47.26 333.56Z" id="i3Asp0UlBu"></path><path d="M104.79 671.23C104.79 671.23 106.5 666.51 112.51 668.01C112.51 668.01 122.6 664.15 122.6 664.15C122.6 664.15 125.82 663.72 123.68 667.79C123.68 667.79 119.81 674.66 119.81 674.66C119.81 674.66 132.69 704.07 124.32 711.16C124.32 711.16 106.29 713.95 106.29 713.95C106.29 713.95 96.84 707.29 97.27 689.69C97.27 689.69 96.84 684.11 91.69 675.09C86.54 666.08 82.67 652.34 88.9 649.76C95.13 647.19 96.73 647.09 96.73 647.09C96.73 647.09 93.81 660.41 101.34 665.07C102.03 666.3 104.1 670 104.79 671.23Z" id="bNHXvS744"></path><path d="M64.86 704.5C64.86 704.5 59.71 694.84 68.29 693.77C68.29 693.77 86.11 692.05 85.68 696.56C85.68 696.56 84.18 707.94 84.18 707.94C84.33 708.43 85.53 712.38 85.68 712.87C85.68 712.87 86.11 725.11 87.61 726.61C87.61 726.61 97.27 740.99 79.88 740.99C79.88 740.99 57.34 739.06 58.85 734.98C58.85 734.98 60.78 710.73 60.78 710.73C61.6 709.48 64.04 705.75 64.86 704.5Z" id="dmMV6v1C2"></path><path d="M96.41 276.89C96.41 276.89 101.99 274.53 101.99 274.53C101.99 274.53 110.15 275.6 109.72 274.75C109.72 274.75 113.16 269.38 108.65 264.23C108.65 264.23 105.43 255.21 105.43 255.21C105.17 255.21 103.88 255.21 101.57 255.21L100.49 253.71C96.89 253.71 94.88 253.71 94.48 253.71C94.48 253.71 89.97 251.99 78.17 253.71C78.17 253.71 50.26 255.86 48.97 262.94C48.97 262.94 41.03 278.82 43.39 282.9C43.39 282.9 59.28 303.73 60.56 310.81C60.56 310.81 67.87 319.47 67.65 315.03C67.65 315.03 61.42 295.14 66.58 294.5C71.73 293.85 80.53 280.76 78.17 272.38C81.82 273.29 90.19 275.6 96.41 276.89Z" id="a8cjkiq7Bx"></path><path d="M934.46 7.45C925.77 7.94 918.11 13.3 914.67 21.29C909.72 33.25 916.09 47.3 925.65 56.02C935.22 64.74 947.5 69.73 958.67 76.28C973.66 85.09 987.14 97.3 994.64 112.99C1002.14 128.68 1002.94 148.1 994.12 163.09C985.93 177 971.05 185.32 956.86 193" id="b2KVsA4jpg"></path><path d="M964.54 8.49C964.54 13.18 956.72 16.98 947.06 16.98C937.41 16.98 929.58 13.18 929.58 8.49C929.58 3.8 937.41 0 947.06 0C956.72 0 964.54 3.8 964.54 8.49Z" id="p10rkScx3F"></path><path d="M978.53 64.43C978.53 69.12 970.7 72.93 961.05 72.93C951.39 72.93 943.57 69.12 943.57 64.43C943.57 59.74 951.39 55.94 961.05 55.94C970.7 55.94 978.53 59.74 978.53 64.43Z" id="a5eg5EPeYI"></path><path d="M946.56 73.43C946.56 78.12 938.74 81.92 929.08 81.92C919.43 81.92 911.6 78.12 911.6 73.43C911.6 68.74 919.43 64.93 929.08 64.93C938.74 64.93 946.56 68.74 946.56 73.43Z" id="a1fxkKiGyw"></path><path d="M996.51 120.38C996.51 125.07 988.68 128.87 979.03 128.87C969.37 128.87 961.55 125.07 961.55 120.38C961.55 115.69 969.37 111.89 979.03 111.89C988.68 111.89 996.51 115.69 996.51 120.38Z" id="b1sNLy83jY"></path><path d="M1031.48 120.38C1031.48 125.07 1023.65 128.87 1013.99 128.87C1004.34 128.87 996.51 125.07 996.51 120.38C996.51 115.69 1004.34 111.89 1013.99 111.89C1023.65 111.89 1031.48 115.69 1031.48 120.38Z" id="c4bTvmKcEi"></path></defs><g><g><use xlink:href="#d7oNbBadIN" opacity="1" fill="#000000" fill-opacity="0"></use><g><use xlink:href="#d7oNbBadIN" opacity="1" fill-opacity="0" stroke="#3f3d56" stroke-width="1" stroke-opacity="1"></use></g></g><g><use xlink:href="#b6ILFIFjnA" opacity="1" fill="#f2f2f2" fill-opacity="1"></use><g><use xlink:href="#b6ILFIFjnA" opacity="1" fill-opacity="0" stroke="#000000" stroke-width="1" stroke-opacity="0"></use></g></g><g><use xlink:href="#bbWQJKcdg" opacity="1" fill="#000000" fill-opacity="0"></use><g><use xlink:href="#bbWQJKcdg" opacity="1" fill-opacity="0" stroke="#3f3d56" stroke-width="1" stroke-opacity="1"></use></g></g><g><use xlink:href="#a3alwUGqsq" opacity="1" fill="#000000" fill-opacity="0"></use><g><use xlink:href="#a3alwUGqsq" opacity="1" fill-opacity="0" stroke="#3f3d56" stroke-width="1" stroke-opacity="1"></use></g></g><g><use xlink:href="#a17QE8Mh7" opacity="1" fill="#ff6347" fill-opacity="1"></use><g><use xlink:href="#a17QE8Mh7" opacity="1" fill-opacity="0" stroke="#000000" stroke-width="1" stroke-opacity="0"></use></g></g><g><use xlink:href="#h1zEbiiBVp" opacity="1" fill="#ff6347" fill-opacity="1"></use><g><use xlink:href="#h1zEbiiBVp" opacity="1" fill-opacity="0" stroke="#000000" stroke-width="1" stroke-opacity="0"></use></g></g><g><use xlink:href="#bOG5KAAf7" opacity="1" fill="#ff6347" fill-opacity="1"></use><g><use xlink:href="#bOG5KAAf7" opacity="1" fill-opacity="0" stroke="#000000" stroke-width="1" stroke-opacity="0"></use></g></g><g><use xlink:href="#h3ZAHAKAGM" opacity="1" fill="#ff6347" fill-opacity="1"></use><g><use xlink:href="#h3ZAHAKAGM" opacity="1" fill-opacity="0" stroke="#000000" stroke-width="1" stroke-opacity="0"></use></g></g><g><use xlink:href="#b9PepnYxR" opacity="1" fill="#000000" fill-opacity="0"></use><g><use xlink:href="#b9PepnYxR" opacity="1" fill-opacity="0" stroke="#3f3d56" stroke-width="1" stroke-opacity="1"></use></g></g><g><use xlink:href="#a1ILyjGwgv" opacity="1" fill="#000000" fill-opacity="0"></use><g><use xlink:href="#a1ILyjGwgv" opacity="1" fill-opacity="0" stroke="#3f3d56" stroke-width="1" stroke-opacity="1"></use></g></g><g><use xlink:href="#d2l41wqCno" opacity="1" fill="#000000" fill-opacity="0"></use><g><use xlink:href="#d2l41wqCno" opacity="1" fill-opacity="0" stroke="#3f3d56" stroke-width="1" stroke-opacity="1"></use></g></g><g><use xlink:href="#cqYiTeUMK" opacity="1" fill="#000000" fill-opacity="0"></use><g><use xlink:href="#cqYiTeUMK" opacity="1" fill-opacity="0" stroke="#3f3d56" stroke-width="1" stroke-opacity="1"></use></g></g><g><use xlink:href="#cXEjm09kL" opacity="1" fill="#ff6347" fill-opacity="1"></use><g><use xlink:href="#cXEjm09kL" opacity="1" fill-opacity="0" stroke="#000000" stroke-width="1" stroke-opacity="0"></use></g></g><g><use xlink:href="#a8nVX4HVi7" opacity="1" fill="#ff6347" fill-opacity="1"></use><g><use xlink:href="#a8nVX4HVi7" opacity="1" fill-opacity="0" stroke="#000000" stroke-width="1" stroke-opacity="0"></use></g></g><g><use xlink:href="#bIG6NQ6Vw" opacity="1" fill="#ff6347" fill-opacity="1"></use><g><use xlink:href="#bIG6NQ6Vw" opacity="1" fill-opacity="0" stroke="#000000" stroke-width="1" stroke-opacity="0"></use></g></g><g><use xlink:href="#f6mJ7ZESH" opacity="1" fill="#000000" fill-opacity="0"></use><g><use xlink:href="#f6mJ7ZESH" opacity="1" fill-opacity="0" stroke="#3f3d56" stroke-width="1" stroke-opacity="1"></use></g></g><g><use xlink:href="#a13QT3Q3Ch" opacity="1" fill="#000000" fill-opacity="0"></use><g><use xlink:href="#a13QT3Q3Ch" opacity="1" fill-opacity="0" stroke="#3f3d56" stroke-width="1" stroke-opacity="1"></use></g></g><g><use xlink:href="#b1ybqDyzbK" opacity="1" fill="#000000" fill-opacity="0"></use><g><use xlink:href="#b1ybqDyzbK" opacity="1" fill-opacity="0" stroke="#3f3d56" stroke-width="1" stroke-opacity="1"></use></g></g><g><use xlink:href="#b45hkt9Xje" opacity="1" fill="#ff6347" fill-opacity="1"></use><g><use xlink:href="#b45hkt9Xje" opacity="1" fill-opacity="0" stroke="#000000" stroke-width="1" stroke-opacity="0"></use></g></g><g><use xlink:href="#a5LFoA3Wr3" opacity="1" fill="#ff6347" fill-opacity="1"></use><g><use xlink:href="#a5LFoA3Wr3" opacity="1" fill-opacity="0" stroke="#000000" stroke-width="1" stroke-opacity="0"></use></g></g><g><use xlink:href="#h5RWdL7o4N" opacity="1" fill="#000000" fill-opacity="0"></use><g><use xlink:href="#h5RWdL7o4N" opacity="1" fill-opacity="0" stroke="#3f3d56" stroke-width="1" stroke-opacity="1"></use></g></g><g><use xlink:href="#c1uf9XGQ91" opacity="1" fill="#2f2e41" fill-opacity="1"></use><g><use xlink:href="#c1uf9XGQ91" opacity="1" fill-opacity="0" stroke="#000000" stroke-width="1" stroke-opacity="0"></use></g></g><g><use xlink:href="#b3eDThDIEQ" opacity="1" fill="#fbbebe" fill-opacity="1"></use><g><use xlink:href="#b3eDThDIEQ" opacity="1" fill-opacity="0" stroke="#000000" stroke-width="1" stroke-opacity="0"></use></g></g><g><use xlink:href="#dgwrmh4if" opacity="1" fill="#fbbebe" fill-opacity="1"></use><g><use xlink:href="#dgwrmh4if" opacity="1" fill-opacity="0" stroke="#000000" stroke-width="1" stroke-opacity="0"></use></g></g><g><use xlink:href="#baEz1cNaF" opacity="1" fill="#a0616a" fill-opacity="1"></use><g><use xlink:href="#baEz1cNaF" opacity="1" fill-opacity="0" stroke="#000000" stroke-width="1" stroke-opacity="0"></use></g></g><g><use xlink:href="#baAQKeabsT" opacity="1" fill="#fbbebe" fill-opacity="1"></use><g><use xlink:href="#baAQKeabsT" opacity="1" fill-opacity="0" stroke="#000000" stroke-width="1" stroke-opacity="0"></use></g></g><g><use xlink:href="#d6mICLdarf" opacity="1" fill="#2f2e41" fill-opacity="1"></use><g><use xlink:href="#d6mICLdarf" opacity="1" fill-opacity="0" stroke="#000000" stroke-width="1" stroke-opacity="0"></use></g></g><g><use xlink:href="#c2C9tDjhmw" opacity="1" fill="#fbbebe" fill-opacity="1"></use><g><use xlink:href="#c2C9tDjhmw" opacity="1" fill-opacity="0" stroke="#000000" stroke-width="1" stroke-opacity="0"></use></g></g><g><use xlink:href="#a2nbiP9sg" opacity="1" fill="#f2f2f2" fill-opacity="1"></use><g><use xlink:href="#a2nbiP9sg" opacity="1" fill-opacity="0" stroke="#000000" stroke-width="1" stroke-opacity="0"></use></g></g><g><use xlink:href="#b3muRG8ab" opacity="1" fill="#2f2e41" fill-opacity="1"></use><g><use xlink:href="#b3muRG8ab" opacity="1" fill-opacity="0" stroke="#000000" stroke-width="1" stroke-opacity="0"></use></g></g><g><use xlink:href="#i3Asp0UlBu" opacity="1" fill="#2f2e41" fill-opacity="1"></use><g><use xlink:href="#i3Asp0UlBu" opacity="1" fill-opacity="0" stroke="#000000" stroke-width="1" stroke-opacity="0"></use></g></g><g><use xlink:href="#bNHXvS744" opacity="1" fill="#3f3d56" fill-opacity="1"></use><g><use xlink:href="#bNHXvS744" opacity="1" fill-opacity="0" stroke="#000000" stroke-width="1" stroke-opacity="0"></use></g></g><g><use xlink:href="#dmMV6v1C2" opacity="1" fill="#3f3d56" fill-opacity="1"></use><g><use xlink:href="#dmMV6v1C2" opacity="1" fill-opacity="0" stroke="#000000" stroke-width="1" stroke-opacity="0"></use></g></g><g><use xlink:href="#a8cjkiq7Bx" opacity="1" fill="#2f2e41" fill-opacity="1"></use><g><use xlink:href="#a8cjkiq7Bx" opacity="1" fill-opacity="0" stroke="#000000" stroke-width="1" stroke-opacity="0"></use></g></g><g><use xlink:href="#b2KVsA4jpg" opacity="1" fill="#000000" fill-opacity="0"></use><g><use xlink:href="#b2KVsA4jpg" opacity="1" fill-opacity="0" stroke="#3f3d56" stroke-width="1" stroke-opacity="1"></use></g></g><g><use xlink:href="#p10rkScx3F" opacity="1" fill="#ff6347" fill-opacity="1"></use><g><use xlink:href="#p10rkScx3F" opacity="1" fill-opacity="0" stroke="#000000" stroke-width="1" stroke-opacity="0"></use></g></g><g><use xlink:href="#a5eg5EPeYI" opacity="1" fill="#ff6347" fill-opacity="1"></use><g><use xlink:href="#a5eg5EPeYI" opacity="1" fill-opacity="0" stroke="#000000" stroke-width="1" stroke-opacity="0"></use></g></g><g><use xlink:href="#a1fxkKiGyw" opacity="1" fill="#ff6347" fill-opacity="1"></use><g><use xlink:href="#a1fxkKiGyw" opacity="1" fill-opacity="0" stroke="#000000" stroke-width="1" stroke-opacity="0"></use></g></g><g><use xlink:href="#b1sNLy83jY" opacity="1" fill="#ff6347" fill-opacity="1"></use><g><use xlink:href="#b1sNLy83jY" opacity="1" fill-opacity="0" stroke="#000000" stroke-width="1" stroke-opacity="0"></use></g></g><g><use xlink:href="#c4bTvmKcEi" opacity="1" fill="#ff6347" fill-opacity="1"></use><g><use xlink:href="#c4bTvmKcEi" opacity="1" fill-opacity="0" stroke="#000000" stroke-width="1" stroke-opacity="0"></use></g></g></g></svg>