<?xml version="1.0" encoding="UTF-8" standalone="no"?>
<!DOCTYPE svg PUBLIC "-//W3C//DTD SVG 1.1//EN" "http://www.w3.org/Graphics/SVG/1.1/DTD/svg11.dtd">
<svg version="1.1" xmlns="http://www.w3.org/2000/svg" xmlns:xlink="http://www.w3.org/1999/xlink" preserveAspectRatio="xMidYMid meet" viewBox="-0.8694967770655921 -1 1079.739003551114 754.2632198174882" width="1075.74" height="750.26"><defs><path d="M832.57 745.42C832.57 745.42 819.42 718.92 826.4 692.33C833.38 665.74 857.85 649.13 857.85 649.13C857.85 649.13 871 675.62 864.02 702.21C857.03 728.8 838.86 736.78 832.57 745.42Z" id="a6Dh652H0T"></path><path d="M831.68 745.4C831.68 745.4 861.2 743.57 880.76 724.25C900.31 704.93 902.5 675.43 902.5 675.43C902.5 675.43 872.98 677.27 853.42 696.59C833.87 715.91 836.03 735.64 831.68 745.4Z" id="e4eUeorwf2"></path><path d="M144.82 601.63L181.65 601.63C236.11 580.32 266.36 568.48 272.41 566.11C272.41 566.11 336.86 539.8 331.6 589.79C331.6 589.79 317.13 706.86 317.13 706.86C317.13 706.86 288.2 693.7 272.41 697.65C272.41 697.65 267.15 617.41 267.15 617.41C267.15 617.41 138.24 679.23 126.41 671.34C126.41 671.34 111.94 608.2 111.94 608.2C116.32 607.33 127.28 605.13 144.82 601.63Z" id="j4yRUtbdu7"></path><path d="M144.82 601.63L181.65 601.63C236.11 580.32 266.36 568.48 272.41 566.11C272.41 566.11 336.86 539.8 331.6 589.79C331.6 589.79 317.13 706.86 317.13 706.86C317.13 706.86 288.2 693.7 272.41 697.65C272.41 697.65 267.15 617.41 267.15 617.41C267.15 617.41 138.24 679.23 126.41 671.34C126.41 671.34 111.94 608.2 111.94 608.2C116.32 607.33 127.28 605.13 144.82 601.63Z" id="a4HamRgb1N"></path><path d="M202.85 486.29L247.42 550.33C309.77 602.42 344.41 631.35 351.33 637.14C351.33 637.14 447.36 659.5 434.2 675.29C421.05 691.07 340.81 659.5 340.81 659.5C340.81 659.5 221.11 572.69 217.17 566.11C213.22 559.53 169.81 497.71 169.81 497.71C174.22 496.19 185.23 492.38 202.85 486.29Z" id="ahTtNr70"></path><path d="M202.85 486.29L247.42 550.33C309.77 602.42 344.41 631.35 351.33 637.14C351.33 637.14 447.36 659.5 434.2 675.29C421.05 691.07 340.81 659.5 340.81 659.5C340.81 659.5 221.11 572.69 217.17 566.11C213.22 559.53 169.81 497.71 169.81 497.71C174.22 496.19 185.23 492.38 202.85 486.29Z" id="c1yc6gd3Zv"></path><path d="M176.39 434.58C193.75 468.51 203.4 487.37 205.33 491.14C205.33 491.14 198.75 518.76 188.23 521.39C188.23 521.39 132.98 487.19 132.98 487.19C138.77 480.17 153.24 462.64 176.39 434.58Z" id="c6DXtw2c8z"></path><path d="M176.39 434.58C193.75 468.51 203.4 487.37 205.33 491.14C205.33 491.14 198.75 518.76 188.23 521.39C188.23 521.39 132.98 487.19 132.98 487.19C138.77 480.17 153.24 462.64 176.39 434.58Z" id="e2fJtEONa"></path><path d="M537.97 607.6C538.07 608 538.05 608.41 537.93 608.79C534.05 620.91 503.03 717.85 499.15 729.97C498.78 731.13 497.54 731.76 496.38 731.39C495.56 731.13 494.96 730.41 494.87 729.54C494.33 724.82 490.04 687.06 489.5 682.34C489.47 682.03 489.5 681.71 489.6 681.41C493.15 670.49 521.63 583.1 525.19 572.18C525.56 571.02 526.81 570.39 527.96 570.77C528.69 571 529.24 571.6 529.42 572.34C531.13 579.39 537.12 604.08 537.97 607.6Z" id="bdImzTFTB"></path><path d="M534.17 605.57L499.97 716.06L492.08 681.86L526.28 575.32L526.28 575.32L534.17 605.57Z" id="d1SdjF5vcL"></path><path d="M492.08 737.11C493.22 735.46 494.19 733.7 494.97 731.85C496.21 729.22 497.34 726.59 497.34 726.59C496.99 723.75 495.23 709.55 492.08 684C411.58 681.14 366.85 679.55 357.91 679.23C357.91 679.23 354.56 715.33 353.87 731.85C353.7 736.02 353.7 738.95 353.96 739.74C355.28 743.69 490.76 738.42 492.08 737.11Z" id="a24MxISLR4"></path><path d="M477.61 726.59L418.42 726.59L418.42 689.76L474.98 689.76L474.98 689.76L477.61 726.59Z" id="hLp8eimh7"></path><path d="M399.04 701.52L397.37 717.38L364.49 717.38L364.49 701.59L398.69 701.59L398.69 701.59L399.04 701.52Z" id="b7SIGpd03"></path><path d="M492.08 737.11C493.22 735.46 494.19 733.7 494.97 731.85C480.86 731.85 367.98 731.85 353.87 731.85C353.7 736.02 353.7 738.95 353.96 739.74C355.28 743.69 490.76 738.42 492.08 737.11Z" id="a582Goiqd"></path><path d="M196.12 297.78C163.43 297.78 136.93 324.28 136.93 356.97C136.93 389.66 163.43 416.16 196.12 416.16C228.81 416.16 255.31 389.66 255.31 356.97C255.31 324.28 228.81 297.78 196.12 297.78Z" id="b1QVPtAzZl"></path><path d="M168.5 462.2C168.5 462.2 109.31 425.37 109.31 425.37C108.58 423.46 102.79 408.2 102.07 406.29C102.07 406.29 154.03 381.96 150.08 362.23C146.14 342.5 192.17 409.58 192.17 409.58C187.44 420.11 172.44 443.78 168.5 462.2Z" id="bAgAw1Yf"></path><path d="M202.7 512.18L256.63 583.21C333.97 640.82 376.94 672.83 385.53 679.23C385.53 679.23 478.92 698.96 457.88 713.43C457.88 713.43 376.33 700.28 376.33 700.28C376.33 700.28 246.1 630.56 218.48 601.63C190.86 572.69 139.56 524.02 139.56 524.02C147.98 522.44 169.02 518.5 202.7 512.18Z" id="e5pXKOJVEZ"></path><path d="M146.14 647.66C202.66 629.88 234.06 620 240.34 618.03C261.01 611.52 283.67 613.92 302.01 625.47C318.45 635.83 328.97 652.27 305.3 676.6C257.94 725.27 226.37 698.96 226.37 698.96C226.37 698.96 67.21 773.94 40.91 737.11C14.6 700.28 13.28 681.86 13.28 681.86C13.28 681.86 114.57 618.73 130.35 622.67C132.46 626 137.72 634.34 146.14 647.66Z" id="atNfFCiTD"></path><path d="M319.76 750.26C319.76 750.26 232.95 745 232.95 745C232.95 745 189.54 745 189.54 722.64C189.54 722.64 204.01 697.65 204.01 697.65C208.48 698.31 244.26 703.57 248.73 704.23C248.73 704.23 302.66 689.76 327.66 709.49C326.08 717.64 369.75 737.11 319.76 750.26Z" id="i3gBUhRgZ"></path><path d="M257.08 346.52C261.46 347.04 266.45 345.51 268.52 341.62C269.64 339.52 269.77 337.04 269.82 334.66C269.98 327.44 269.46 319.63 264.88 314.04C261.97 310.48 257.72 308.24 254.7 304.77C252.54 302.28 251.1 299.27 249.55 296.36C243.69 285.35 235.01 274.76 222.94 271.59C217.9 270.26 212.61 270.32 207.4 270.4C204.37 270.44 180.06 270.78 177.02 270.83C172.1 270.9 167.11 270.98 162.4 272.4C152.62 275.36 145.5 283.58 138.97 291.45C134.09 297.33 129.2 303.28 125.54 309.99C120.29 319.78 117.63 330.76 117.83 341.87C117.79 344.72 118.15 347.56 118.92 350.3C119.81 352.82 120.92 355.26 122.23 357.58C127.93 368.78 131.32 382.76 124.9 393.56C136.05 389 147.08 383.03 154.43 373.49C157.72 369.23 160.3 364.23 164.69 361.1C169.07 357.97 176.22 357.7 179.03 362.3C180 364.15 180.49 366.22 180.48 368.32C180.68 371.76 180.68 375.35 182.14 378.48C183.6 381.61 187.09 384.13 190.41 383.2C196.14 381.58 195.59 372.79 200 368.8C203.35 365.77 208.52 366.35 212.82 364.97C217.84 363.37 221.6 359.02 223.74 354.21C225.37 350.56 225.35 341 228.43 339.02C232.3 336.53 241.09 340.48 244.68 342.08C248.71 343.87 252.7 346 257.08 346.52Z" id="b7TAmb9Lh"></path><path d="M105.5 400.08C113.94 402.34 132.87 408.34 136.93 417.48C142.19 429.31 160.61 447.73 160.61 447.73C160.61 447.73 185.6 472.72 180.34 489.82C175.07 506.92 155.34 526.65 155.34 526.65C155.34 526.65 160.61 608.2 134.3 629.25C107.99 650.3 97.47 635.83 97.47 655.56C97.47 675.29 15.91 737.11 0.13 698.96C0.13 698.96 8.02 627.93 5.39 602.94C2.8 578.31 6.59 424.63 97.37 400.06C100.04 399.34 102.84 399.35 105.5 400.08Z" id="a5L3cA1CZ"></path><path d="M205.33 517.44C205.33 517.44 156.66 541.12 146.14 539.8C135.61 538.49 94.84 492.45 84.31 488.51C73.79 484.56 68.53 413.53 139.56 433.26C152.71 450.1 219.8 492.45 205.33 517.44Z" id="e6u4Ru1O0e"></path><path d="M498.04 172.41C462.16 172.41 433.06 201.5 433.06 237.39C433.06 273.27 462.16 302.37 498.04 302.37C533.93 302.37 563.02 273.27 563.02 237.39C563.02 201.5 533.93 172.41 498.04 172.41Z" id="b2bJ4a75A2"></path><path d="M670.61 152.99L670.61 76.8L1034.75 76.8L1034.75 152.99L670.61 152.99ZM672.21 151.39L1033.14 151.39L1033.14 78.4L672.21 78.4L672.21 151.39Z" id="c6f5OBajiR"></path><path d="M1008.28 92.04C1008.28 92.04 1008.28 92.04 1008.28 92.04C1008.28 136.79 1008.28 161.66 1008.28 166.63C1008.28 166.63 1008.28 166.63 1008.28 166.63C790.76 166.63 669.91 166.63 645.74 166.63C645.74 166.63 645.74 166.63 645.74 166.63C645.74 121.87 645.74 97.01 645.74 92.04C645.74 92.04 645.74 92.04 645.74 92.04C863.27 92.04 984.11 92.04 1008.28 92.04Z" id="aGO3Zec9p"></path><path d="M416.57 9.62C413.47 9.62 410.96 12.14 410.96 15.24C410.96 18.34 413.47 20.85 416.57 20.85C419.67 20.85 422.18 18.34 422.18 15.24C422.18 12.14 419.67 9.62 416.57 9.62Z" id="a8IDlz7sul"></path><path d="M435.82 9.62C432.72 9.62 430.2 12.14 430.2 15.24C430.2 18.34 432.72 20.85 435.82 20.85C438.92 20.85 441.43 18.34 441.43 15.24C441.43 12.14 438.92 9.62 435.82 9.62Z" id="gSGKEjANB"></path><path d="M455.07 9.62C451.97 9.62 449.45 12.14 449.45 15.24C449.45 18.34 451.97 20.85 455.07 20.85C458.17 20.85 460.68 18.34 460.68 15.24C460.68 12.14 458.17 9.62 455.07 9.62Z" id="bZJMXq6hX"></path><path d="M400.53 439.53L400.53 0L1075.87 0L1075.87 439.53L400.53 439.53ZM402.13 437.93L1074.27 437.93L1074.27 1.6L402.13 1.6L402.13 437.93Z" id="b1RJfabz8j"></path><path d="M1075.07 24.33C1075.07 24.33 1075.07 24.33 1075.07 24.33C1075.07 25.29 1075.07 25.83 1075.07 25.93C1075.07 25.93 1075.07 25.93 1075.07 25.93C670.83 25.93 446.25 25.93 401.33 25.93C401.33 25.93 401.33 25.93 401.33 25.93C401.33 24.97 401.33 24.44 401.33 24.33C401.33 24.33 401.33 24.33 401.33 24.33C805.57 24.33 1030.15 24.33 1075.07 24.33Z" id="f7zIYHvuH"></path><path d="M420.67 6.92L421.76 7.51L422.71 8.3L423.49 9.25L424.09 10.34L424.46 11.54L424.59 12.83L424.46 14.13L424.08 15.33L423.49 16.42L422.71 17.37L421.76 18.15L420.67 18.74L419.47 19.12L418.17 19.25L416.88 19.12L415.68 18.75L414.59 18.15L413.64 17.37L412.85 16.42L412.26 15.33L411.89 14.13L411.76 12.83L411.89 11.54L412.26 10.34L412.85 9.25L413.64 8.3L414.59 7.51L415.68 6.92L416.88 6.55L418.17 6.42L419.47 6.55L420.67 6.92ZM415.75 8.68L414.77 9.43L414.02 10.4L413.53 11.55L413.36 12.83L413.53 14.11L414.02 15.26L414.77 16.24L415.75 16.99L416.89 17.47L418.17 17.65L419.45 17.47L420.6 16.99L421.58 16.24L422.33 15.26L422.81 14.11L422.99 12.83L422.81 11.55L422.33 10.41L421.58 9.43L420.6 8.68L419.45 8.19L418.17 8.02L416.89 8.19L415.75 8.68Z" id="cRDzGWmTR"></path><path d="M439.92 6.92L441.01 7.51L441.96 8.3L442.74 9.25L443.34 10.34L443.71 11.54L443.84 12.83L443.71 14.13L443.33 15.33L442.74 16.42L441.96 17.37L441.01 18.15L439.92 18.74L438.72 19.12L437.42 19.25L436.13 19.12L434.93 18.75L433.84 18.15L432.89 17.37L432.1 16.42L431.51 15.33L431.14 14.13L431.01 12.83L431.14 11.54L431.51 10.34L432.1 9.25L432.89 8.3L433.84 7.51L434.93 6.92L436.13 6.55L437.42 6.42L438.72 6.55L439.92 6.92ZM434.99 8.68L434.02 9.43L433.27 10.4L432.78 11.55L432.61 12.83L432.78 14.11L433.27 15.26L434.02 16.24L434.99 16.99L436.14 17.47L437.42 17.65L438.7 17.47L439.85 16.99L440.83 16.24L441.58 15.26L442.06 14.11L442.24 12.83L442.06 11.55L441.58 10.41L440.82 9.43L439.85 8.68L438.7 8.19L437.42 8.02L436.14 8.19L434.99 8.68Z" id="dejKZ2xMs"></path><path d="M459.17 6.92L460.26 7.51L461.21 8.3L461.99 9.25L462.59 10.34L462.96 11.54L463.09 12.83L462.96 14.13L462.58 15.33L461.99 16.42L461.21 17.37L460.26 18.15L459.17 18.74L457.97 19.12L456.67 19.25L455.38 19.12L454.18 18.75L453.09 18.15L452.14 17.37L451.35 16.42L450.76 15.33L450.39 14.13L450.26 12.83L450.39 11.54L450.76 10.34L451.35 9.25L452.14 8.3L453.09 7.51L454.18 6.92L455.38 6.55L456.67 6.42L457.97 6.55L459.17 6.92ZM454.24 8.68L453.27 9.43L452.52 10.4L452.03 11.55L451.86 12.83L452.03 14.11L452.52 15.26L453.27 16.24L454.24 16.99L455.39 17.47L456.67 17.65L457.95 17.47L459.1 16.99L460.08 16.24L460.83 15.26L461.31 14.11L461.49 12.83L461.31 11.55L460.83 10.41L460.07 9.43L459.1 8.68L457.95 8.19L456.67 8.02L455.39 8.19L454.24 8.68Z" id="cQTNP8L9q"></path><path d="M613.66 25.13C613.66 25.13 613.66 25.13 613.66 25.13C613.66 273.67 613.66 411.74 613.66 439.35C613.66 439.35 613.66 439.35 613.66 439.35C612.7 439.35 612.16 439.35 612.06 439.35C612.06 439.35 612.06 439.35 612.06 439.35C612.06 190.82 612.06 52.75 612.06 25.13C612.06 25.13 612.06 25.13 612.06 25.13C613.02 25.13 613.55 25.13 613.66 25.13Z" id="j2CkZ7lBec"></path><path d="M806.56 228.79C806.56 228.79 806.56 228.79 806.56 228.79C806.56 238.41 806.56 243.76 806.56 244.83C806.56 244.83 806.56 244.83 806.56 244.83C735.82 244.83 696.52 244.83 688.66 244.83C688.66 244.83 688.66 244.83 688.66 244.83C688.66 235.21 688.66 229.86 688.66 228.79C688.66 228.79 688.66 228.79 688.66 228.79C759.4 228.79 798.7 228.79 806.56 228.79Z" id="e9b8CgQoT"></path><path d="M991.84 228.79C991.84 228.79 991.84 228.79 991.84 228.79C991.84 238.41 991.84 243.76 991.84 244.83C991.84 244.83 991.84 244.83 991.84 244.83C921.09 244.83 881.79 244.83 873.93 244.83C873.93 244.83 873.93 244.83 873.93 244.83C873.93 235.21 873.93 229.86 873.93 228.79C873.93 228.79 873.93 228.79 873.93 228.79C944.68 228.79 983.98 228.79 991.84 228.79Z" id="biovHoD97"></path><path d="M694.27 237.61L694.27 219.97L813.78 219.97L813.78 237.61L694.27 237.61ZM695.87 236.01L812.17 236.01L812.17 221.57L695.87 221.57L695.87 236.01Z" id="bV5vYz1Y7"></path><path d="M806.56 353.11C806.56 353.11 806.56 353.11 806.56 353.11C806.56 362.74 806.56 368.08 806.56 369.15C806.56 369.15 806.56 369.15 806.56 369.15C735.82 369.15 696.52 369.15 688.66 369.15C688.66 369.15 688.66 369.15 688.66 369.15C688.66 359.53 688.66 354.18 688.66 353.11C688.66 353.11 688.66 353.11 688.66 353.11C759.4 353.11 798.7 353.11 806.56 353.11Z" id="ima7qyR9L"></path><path d="M694.27 361.93L694.27 344.29L813.78 344.29L813.78 361.93L694.27 361.93ZM695.87 360.33L812.17 360.33L812.17 345.89L695.87 345.89L695.87 360.33Z" id="b8nO9SNNTx"></path><path d="M992.24 289.35C992.24 289.35 992.24 289.35 992.24 289.35C992.24 298.97 992.24 304.32 992.24 305.39C992.24 305.39 992.24 305.39 992.24 305.39C810.33 305.39 709.27 305.39 689.06 305.39C689.06 305.39 689.06 305.39 689.06 305.39C689.06 295.76 689.06 290.42 689.06 289.35C689.06 289.35 689.06 289.35 689.06 289.35C870.97 289.35 972.03 289.35 992.24 289.35Z" id="f3G82CFPk"></path><path d="M694.67 299.77L694.67 282.13L999.46 282.13L999.46 299.77L694.67 299.77ZM696.28 298.17L997.85 298.17L997.85 283.73L696.28 283.73L696.28 298.17Z" id="b35giQivs"></path><path d="M879.55 237.61L879.55 219.97L999.06 219.97L999.06 237.61L879.55 237.61ZM881.15 236.01L997.45 236.01L997.45 221.57L881.15 221.57L881.15 236.01Z" id="a62YFNYWBE"></path><path d="M514.45 153.63L517.11 153.9L519.74 154.28L522.34 154.75L524.9 155.33L527.42 156L529.9 156.78L532.33 157.64L534.72 158.6L537.07 159.64L539.36 160.78L541.61 162L543.8 163.3L545.93 164.68L548.01 166.14L550.02 167.68L551.98 169.29L553.87 170.98L555.7 172.74L557.45 174.56L559.14 176.45L560.75 178.41L562.29 180.42L563.75 182.5L565.14 184.64L566.44 186.83L567.66 189.07L568.79 191.37L569.84 193.71L570.79 196.1L571.66 198.54L572.43 201.02L573.1 203.54L573.68 206.09L574.16 208.69L574.53 211.32L574.8 213.98L574.97 216.67L575.02 219.39L574.96 222.11L574.8 224.8L574.52 227.46L574.15 230.09L573.67 232.68L573.09 235.24L572.41 237.76L571.64 240.24L570.77 242.67L569.82 245.06L568.77 247.4L567.63 249.7L566.42 251.94L565.11 254.13L563.73 256.26L562.27 258.34L560.73 260.36L559.12 262.31L557.43 264.2L555.67 266.02L553.85 267.78L551.96 269.47L550 271.08L547.99 272.62L545.91 274.08L543.78 275.46L541.59 276.77L539.35 277.99L537.05 279.12L534.71 280.17L532.32 281.12L529.88 281.99L527.41 282.76L524.89 283.44L522.33 284.02L519.74 284.5L517.11 284.87L514.45 285.15L511.76 285.31L509.04 285.37L506.32 285.32L503.63 285.15L500.97 284.88L498.34 284.51L495.74 284.03L493.18 283.45L490.66 282.78L488.19 282.01L485.75 281.14L483.36 280.19L481.01 279.14L478.72 278.01L476.48 276.79L474.29 275.49L472.15 274.1L470.07 272.64L468.06 271.1L466.1 269.49L464.21 267.8L462.39 266.05L460.63 264.22L458.94 262.33L457.33 260.38L455.79 258.36L454.33 256.28L452.95 254.15L451.64 251.96L450.43 249.71L449.29 247.42L448.25 245.07L447.29 242.68L446.42 240.25L445.65 237.77L444.98 235.25L444.4 232.69L443.92 230.09L443.55 227.46L443.28 224.8L443.12 222.11L443.06 219.39L443.12 216.67L443.28 213.98L443.55 211.32L443.92 208.69L444.4 206.09L444.98 203.54L445.65 201.02L446.42 198.54L447.29 196.1L448.25 193.71L449.29 191.37L450.43 189.07L451.64 186.83L452.95 184.64L454.33 182.5L455.79 180.42L457.33 178.41L458.94 176.45L460.63 174.56L462.39 172.74L464.21 170.98L466.1 169.29L468.06 167.68L470.07 166.14L472.15 164.68L474.29 163.3L476.48 162L478.72 160.78L481.01 159.64L483.36 158.6L485.75 157.64L488.19 156.78L490.66 156L493.18 155.33L495.74 154.75L498.34 154.28L500.97 153.9L503.63 153.63L506.32 153.47L509.04 153.41L511.76 153.47L514.45 153.63ZM503.79 155.62L501.21 155.89L498.66 156.25L496.15 156.71L493.67 157.27L491.22 157.93L488.82 158.67L486.46 159.51L484.14 160.44L481.86 161.45L479.64 162.55L477.46 163.73L475.34 165L473.27 166.34L471.25 167.76L469.3 169.25L467.4 170.81L465.57 172.45L463.8 174.15L462.1 175.92L460.46 177.75L458.9 179.65L457.4 181.61L455.99 183.62L454.65 185.69L453.38 187.81L452.2 189.99L451.1 192.21L450.09 194.49L449.16 196.81L448.32 199.17L447.57 201.57L446.92 204.02L446.36 206.5L445.9 209.01L445.53 211.56L445.27 214.14L445.11 216.75L445.06 219.39L445.11 222.03L445.27 224.64L445.53 227.22L445.9 229.77L446.36 232.29L446.92 234.77L447.57 237.21L448.32 239.61L449.16 241.98L450.09 244.3L451.1 246.57L452.2 248.79L453.38 250.97L454.65 253.09L455.99 255.16L457.4 257.18L458.9 259.13L460.46 261.03L462.1 262.86L463.8 264.63L465.57 266.34L467.4 267.97L469.3 269.54L471.25 271.03L473.27 272.45L475.34 273.79L477.46 275.05L479.64 276.23L481.86 277.33L484.14 278.34L486.46 279.27L488.82 280.11L491.22 280.86L493.67 281.51L496.15 282.07L498.66 282.54L501.21 282.9L503.79 283.16L506.4 283.32L509.04 283.37L511.68 283.32L514.29 283.16L516.87 282.9L519.42 282.54L521.93 282.07L524.42 281.51L526.86 280.86L529.26 280.11L531.63 279.27L533.94 278.34L536.22 277.33L538.44 276.23L540.62 275.05L542.74 273.79L544.81 272.45L546.83 271.03L548.78 269.54L550.68 267.97L552.51 266.34L554.28 264.63L555.99 262.86L557.62 261.03L559.18 259.13L560.68 257.18L562.09 255.16L563.44 253.09L564.7 250.97L565.88 248.79L566.98 246.57L567.99 244.3L568.92 241.98L569.76 239.61L570.51 237.21L571.16 234.77L571.72 232.29L572.18 229.77L572.55 227.22L572.81 224.64L572.97 222.03L573.02 219.39L572.97 216.76L572.8 214.15L572.54 211.57L572.17 209.02L571.71 206.5L571.15 204.02L570.49 201.58L569.74 199.18L568.9 196.82L567.97 194.5L566.96 192.23L565.86 190L564.68 187.83L563.41 185.71L562.07 183.64L560.65 181.62L559.16 179.67L557.6 177.77L555.96 175.94L554.26 174.17L552.49 172.47L550.66 170.83L548.76 169.27L546.81 167.78L544.79 166.36L542.73 165.02L540.6 163.76L538.43 162.57L536.2 161.47L533.93 160.46L531.61 159.53L529.25 158.69L526.85 157.94L524.41 157.28L521.93 156.72L519.41 156.26L516.87 155.89L514.29 155.63L511.68 155.47L509.04 155.41L506.4 155.46L503.79 155.62Z" id="bmrlMP6db"></path><path d="M1030.88 744.23C1030.88 744.23 1030.88 744.23 1030.88 744.23C1030.88 745.43 1030.88 746.1 1030.88 746.23C1030.88 746.23 1030.88 746.23 1030.88 746.23C861.13 746.23 766.83 746.23 747.97 746.23C747.97 746.23 747.97 746.23 747.97 746.23C747.97 745.03 747.97 744.37 747.97 744.23C747.97 744.23 747.97 744.23 747.97 744.23C917.72 744.23 1012.02 744.23 1030.88 744.23Z" id="b3GEFzB9zu"></path></defs><g><g><use xlink:href="#a6Dh652H0T" opacity="1" fill="#3f3d56" fill-opacity="1"></use><g><use xlink:href="#a6Dh652H0T" opacity="1" fill-opacity="0" stroke="#000000" stroke-width="1" stroke-opacity="0"></use></g></g><g><use xlink:href="#e4eUeorwf2" opacity="1" fill="#ff6347" fill-opacity="1"></use><g><use xlink:href="#e4eUeorwf2" opacity="1" fill-opacity="0" stroke="#000000" stroke-width="1" stroke-opacity="0"></use></g></g><g><use xlink:href="#j4yRUtbdu7" opacity="1" fill="#2f2e41" fill-opacity="1"></use><g><use xlink:href="#j4yRUtbdu7" opacity="1" fill-opacity="0" stroke="#000000" stroke-width="1" stroke-opacity="0"></use></g></g><g><use xlink:href="#a4HamRgb1N" opacity="1" fill="#000000" fill-opacity="1"></use><g><use xlink:href="#a4HamRgb1N" opacity="1" fill-opacity="0" stroke="#000000" stroke-width="1" stroke-opacity="0"></use></g></g><g><use xlink:href="#ahTtNr70" opacity="1" fill="#a0616a" fill-opacity="1"></use><g><use xlink:href="#ahTtNr70" opacity="1" fill-opacity="0" stroke="#000000" stroke-width="1" stroke-opacity="0"></use></g></g><g><use xlink:href="#c1yc6gd3Zv" opacity="1" fill="#e0a7a7" fill-opacity="1"></use><g><use xlink:href="#c1yc6gd3Zv" opacity="1" fill-opacity="0" stroke="#000000" stroke-width="1" stroke-opacity="0"></use></g></g><g><use xlink:href="#c6DXtw2c8z" opacity="1" fill="#d0cde1" fill-opacity="1"></use><g><use xlink:href="#c6DXtw2c8z" opacity="1" fill-opacity="0" stroke="#000000" stroke-width="1" stroke-opacity="0"></use></g></g><g><use xlink:href="#e2fJtEONa" opacity="1" fill="#a4a1b4" fill-opacity="1"></use><g><use xlink:href="#e2fJtEONa" opacity="1" fill-opacity="0" stroke="#000000" stroke-width="1" stroke-opacity="0"></use></g></g><g><use xlink:href="#bdImzTFTB" opacity="1" fill="#2f2e41" fill-opacity="1"></use><g><use xlink:href="#bdImzTFTB" opacity="1" fill-opacity="0" stroke="#000000" stroke-width="1" stroke-opacity="0"></use></g></g><g><use xlink:href="#d1SdjF5vcL" opacity="1" fill="#f2f2f2" fill-opacity="1"></use><g><use xlink:href="#d1SdjF5vcL" opacity="1" fill-opacity="0" stroke="#000000" stroke-width="1" stroke-opacity="0"></use></g></g><g><use xlink:href="#a24MxISLR4" opacity="1" fill="#2f2e41" fill-opacity="1"></use><g><use xlink:href="#a24MxISLR4" opacity="1" fill-opacity="0" stroke="#000000" stroke-width="1" stroke-opacity="0"></use></g></g><g><use xlink:href="#hLp8eimh7" opacity="1" fill="#000000" fill-opacity="1"></use><g><use xlink:href="#hLp8eimh7" opacity="1" fill-opacity="0" stroke="#000000" stroke-width="1" stroke-opacity="0"></use></g></g><g><use xlink:href="#b7SIGpd03" opacity="1" fill="#000000" fill-opacity="1"></use><g><use xlink:href="#b7SIGpd03" opacity="1" fill-opacity="0" stroke="#000000" stroke-width="1" stroke-opacity="0"></use></g></g><g><use xlink:href="#a582Goiqd" opacity="1" fill="#000000" fill-opacity="1"></use><g><use xlink:href="#a582Goiqd" opacity="1" fill-opacity="0" stroke="#000000" stroke-width="1" stroke-opacity="0"></use></g></g><g><use xlink:href="#b1QVPtAzZl" opacity="1" fill="#fbbebe" fill-opacity="1"></use><g><use xlink:href="#b1QVPtAzZl" opacity="1" fill-opacity="0" stroke="#000000" stroke-width="1" stroke-opacity="0"></use></g></g><g><use xlink:href="#bAgAw1Yf" opacity="1" fill="#fbbebe" fill-opacity="1"></use><g><use xlink:href="#bAgAw1Yf" opacity="1" fill-opacity="0" stroke="#000000" stroke-width="1" stroke-opacity="0"></use></g></g><g><use xlink:href="#e5pXKOJVEZ" opacity="1" fill="#fbbebe" fill-opacity="1"></use><g><use xlink:href="#e5pXKOJVEZ" opacity="1" fill-opacity="0" stroke="#000000" stroke-width="1" stroke-opacity="0"></use></g></g><g><use xlink:href="#atNfFCiTD" opacity="1" fill="#2f2e41" fill-opacity="1"></use><g><use xlink:href="#atNfFCiTD" opacity="1" fill-opacity="0" stroke="#000000" stroke-width="1" stroke-opacity="0"></use></g></g><g><use xlink:href="#i3gBUhRgZ" opacity="1" fill="#d0cde1" fill-opacity="1"></use><g><use xlink:href="#i3gBUhRgZ" opacity="1" fill-opacity="0" stroke="#000000" stroke-width="1" stroke-opacity="0"></use></g></g><g><use xlink:href="#b7TAmb9Lh" opacity="1" fill="#2f2e41" fill-opacity="1"></use><g><use xlink:href="#b7TAmb9Lh" opacity="1" fill-opacity="0" stroke="#000000" stroke-width="1" stroke-opacity="0"></use></g></g><g><use xlink:href="#a5L3cA1CZ" opacity="1" fill="#d0cde1" fill-opacity="1"></use><g><use xlink:href="#a5L3cA1CZ" opacity="1" fill-opacity="0" stroke="#000000" stroke-width="1" stroke-opacity="0"></use></g></g><g><use xlink:href="#e6u4Ru1O0e" opacity="1" fill="#d0cde1" fill-opacity="1"></use><g><use xlink:href="#e6u4Ru1O0e" opacity="1" fill-opacity="0" stroke="#000000" stroke-width="1" stroke-opacity="0"></use></g></g><g><use xlink:href="#b2bJ4a75A2" opacity="1" fill="#f2f2f2" fill-opacity="1"></use><g><use xlink:href="#b2bJ4a75A2" opacity="1" fill-opacity="0" stroke="#000000" stroke-width="1" stroke-opacity="0"></use></g></g><g><use xlink:href="#c6f5OBajiR" opacity="1" fill="#3f3d56" fill-opacity="1"></use><g><use xlink:href="#c6f5OBajiR" opacity="1" fill-opacity="0" stroke="#000000" stroke-width="1" stroke-opacity="0"></use></g></g><g><use xlink:href="#aGO3Zec9p" opacity="1" fill="#ff6347" fill-opacity="1"></use><g><use xlink:href="#aGO3Zec9p" opacity="1" fill-opacity="0" stroke="#000000" stroke-width="1" stroke-opacity="0"></use></g></g><g><use xlink:href="#a8IDlz7sul" opacity="1" fill="#ff6347" fill-opacity="1"></use><g><use xlink:href="#a8IDlz7sul" opacity="1" fill-opacity="0" stroke="#000000" stroke-width="1" stroke-opacity="0"></use></g></g><g><use xlink:href="#gSGKEjANB" opacity="1" fill="#ff6347" fill-opacity="1"></use><g><use xlink:href="#gSGKEjANB" opacity="1" fill-opacity="0" stroke="#000000" stroke-width="1" stroke-opacity="0"></use></g></g><g><use xlink:href="#bZJMXq6hX" opacity="1" fill="#ff6347" fill-opacity="1"></use><g><use xlink:href="#bZJMXq6hX" opacity="1" fill-opacity="0" stroke="#000000" stroke-width="1" stroke-opacity="0"></use></g></g><g><use xlink:href="#b1RJfabz8j" opacity="1" fill="#3f3d56" fill-opacity="1"></use><g><use xlink:href="#b1RJfabz8j" opacity="1" fill-opacity="0" stroke="#000000" stroke-width="1" stroke-opacity="0"></use></g></g><g><use xlink:href="#f7zIYHvuH" opacity="1" fill="#3f3d56" fill-opacity="1"></use><g><use xlink:href="#f7zIYHvuH" opacity="1" fill-opacity="0" stroke="#000000" stroke-width="1" stroke-opacity="0"></use></g></g><g><use xlink:href="#cRDzGWmTR" opacity="1" fill="#3f3d56" fill-opacity="1"></use><g><use xlink:href="#cRDzGWmTR" opacity="1" fill-opacity="0" stroke="#000000" stroke-width="1" stroke-opacity="0"></use></g></g><g><use xlink:href="#dejKZ2xMs" opacity="1" fill="#3f3d56" fill-opacity="1"></use><g><use xlink:href="#dejKZ2xMs" opacity="1" fill-opacity="0" stroke="#000000" stroke-width="1" stroke-opacity="0"></use></g></g><g><use xlink:href="#cQTNP8L9q" opacity="1" fill="#3f3d56" fill-opacity="1"></use><g><use xlink:href="#cQTNP8L9q" opacity="1" fill-opacity="0" stroke="#000000" stroke-width="1" stroke-opacity="0"></use></g></g><g><use xlink:href="#j2CkZ7lBec" opacity="1" fill="#3f3d56" fill-opacity="1"></use><g><use xlink:href="#j2CkZ7lBec" opacity="1" fill-opacity="0" stroke="#000000" stroke-width="1" stroke-opacity="0"></use></g></g><g><use xlink:href="#e9b8CgQoT" opacity="1" fill="#f2f2f2" fill-opacity="1"></use><g><use xlink:href="#e9b8CgQoT" opacity="1" fill-opacity="0" stroke="#000000" stroke-width="1" stroke-opacity="0"></use></g></g><g><use xlink:href="#biovHoD97" opacity="1" fill="#f2f2f2" fill-opacity="1"></use><g><use xlink:href="#biovHoD97" opacity="1" fill-opacity="0" stroke="#000000" stroke-width="1" stroke-opacity="0"></use></g></g><g><use xlink:href="#bV5vYz1Y7" opacity="1" fill="#3f3d56" fill-opacity="1"></use><g><use xlink:href="#bV5vYz1Y7" opacity="1" fill-opacity="0" stroke="#000000" stroke-width="1" stroke-opacity="0"></use></g></g><g><use xlink:href="#ima7qyR9L" opacity="1" fill="#f2f2f2" fill-opacity="1"></use><g><use xlink:href="#ima7qyR9L" opacity="1" fill-opacity="0" stroke="#000000" stroke-width="1" stroke-opacity="0"></use></g></g><g><use xlink:href="#b8nO9SNNTx" opacity="1" fill="#3f3d56" fill-opacity="1"></use><g><use xlink:href="#b8nO9SNNTx" opacity="1" fill-opacity="0" stroke="#000000" stroke-width="1" stroke-opacity="0"></use></g></g><g><use xlink:href="#f3G82CFPk" opacity="1" fill="#f2f2f2" fill-opacity="1"></use><g><use xlink:href="#f3G82CFPk" opacity="1" fill-opacity="0" stroke="#000000" stroke-width="1" stroke-opacity="0"></use></g></g><g><use xlink:href="#b35giQivs" opacity="1" fill="#3f3d56" fill-opacity="1"></use><g><use xlink:href="#b35giQivs" opacity="1" fill-opacity="0" stroke="#000000" stroke-width="1" stroke-opacity="0"></use></g></g><g><use xlink:href="#a62YFNYWBE" opacity="1" fill="#3f3d56" fill-opacity="1"></use><g><use xlink:href="#a62YFNYWBE" opacity="1" fill-opacity="0" stroke="#000000" stroke-width="1" stroke-opacity="0"></use></g></g><g><use xlink:href="#bmrlMP6db" opacity="1" fill="#3f3d56" fill-opacity="1"></use><g><use xlink:href="#bmrlMP6db" opacity="1" fill-opacity="0" stroke="#000000" stroke-width="1" stroke-opacity="0"></use></g></g><g><use xlink:href="#b3GEFzB9zu" opacity="1" fill="#3f3d56" fill-opacity="1"></use><g><use xlink:href="#b3GEFzB9zu" opacity="1" fill-opacity="0" stroke="#000000" stroke-width="1" stroke-opacity="0"></use></g></g></g></svg>